HIERARCHY
ROOT Hips
{
	OFFSET 0.00000 0.00000 0.00000
	CHANNELS 6 Xposition Yposition Zposition Zrotation Yrotation Xrotation 
	JOINT LHipJoint
	{
		OFFSET 0 0 0
		CHANNELS 3 Zrotation Yrotation Xrotation
		JOINT LeftHip
		{
			OFFSET 2.36090 -1.39315 1.24752
			CHANNELS 3 Zrotation Yrotation Xrotation
			JOINT LeftKnee
			{
				OFFSET 2.06810 -5.68207 0.00000
				CHANNELS 3 Zrotation Yrotation Xrotation
				JOINT LeftAnkle
				{
					OFFSET 2.46631 -6.77613 0.00000
					CHANNELS 3 Zrotation Yrotation Xrotation
					JOINT LeftToe
					{
						OFFSET 0.26031 -0.71520 1.99545
						CHANNELS 3 Zrotation Yrotation Xrotation
						End Site
						{
							OFFSET 0.00000 -0.00000 1.05957
						}
					}
				}
			}
		}
	}
	JOINT RHipJoint
	{
		OFFSET 0 0 0
		CHANNELS 3 Zrotation Yrotation Xrotation
		JOINT RightHip
		{
			OFFSET -2.25243 -1.39315 1.24752
			CHANNELS 3 Zrotation Yrotation Xrotation
			JOINT RightKnee
			{
				OFFSET -2.17343 -5.97145 0.00000
				CHANNELS 3 Zrotation Yrotation Xrotation
				JOINT RightAnkle
				{
					OFFSET -2.52372 -6.93386 0.00000
					CHANNELS 3 Zrotation Yrotation Xrotation
					JOINT RightToe
					{
						OFFSET -0.22538 -0.61923 2.11447
						CHANNELS 3 Zrotation Yrotation Xrotation
						End Site
						{
							OFFSET -0.00000 -0.00000 1.10506
						}
					}
				}
			}
		}
	}
	JOINT lowerback
	{
		OFFSET 0 0 0
		CHANNELS 3 Zrotation Yrotation Xrotation
		JOINT Chest
		{
			OFFSET 0.01594 2.13103 0.08007
			CHANNELS 3 Zrotation Yrotation Xrotation
			JOINT Chest2
			{
				OFFSET 0.01393 2.09723 0.18338
				CHANNELS 3 Zrotation Yrotation Xrotation
				JOINT lowerneck
				{
					OFFSET 0 0 0
					CHANNELS 3 Zrotation Yrotation Xrotation
					JOINT Neck
					{
						OFFSET 0.05351 1.38915 0.32494
						CHANNELS 3 Zrotation Yrotation Xrotation
						JOINT Head
						{
							OFFSET 0.00711 1.45992 -0.21666
							CHANNELS 3 Zrotation Yrotation Xrotation
							End Site
							{
								OFFSET -0.00433 1.47702 -0.11056
							}
						}
					}
				}
				JOINT LeftCollar
				{
					OFFSET 0 0 0
					CHANNELS 3 Zrotation Yrotation Xrotation
					JOINT LeftShoulder
					{
						OFFSET 2.87198 0.92249 0.11132
CHANNELS 3 Zrotation Xrotation Yrotation
						JOINT LeftElbow
						{
OFFSET 0 -5.527310 0.000000
CHANNELS 3 Zrotation Xrotation Yrotation
							JOINT LeftWrist
							{
OFFSET 0 -3.110590 0.000000
CHANNELS 3 Zrotation Xrotation Yrotation
								JOINT lhand
								{
									OFFSET 0 0 0
CHANNELS 3 Zrotation Xrotation Yrotation
									JOINT LFingers
									{
OFFSET 0 -0.419630 0.000000
CHANNELS 3 Zrotation Xrotation Yrotation
										End Site
										{
OFFSET 0 -0.338310 0.000000
										}
									}
								}
								JOINT LThumb
								{
OFFSET 0 0.000000 0.000000
CHANNELS 3 Zrotation Xrotation Yrotation
									End Site
									{
OFFSET 0 -0.343480 0.343480
									}
								}
							}
						}
					}
				}
				JOINT RightCollar
				{
					OFFSET 0 0 0
					CHANNELS 3 Zrotation Yrotation Xrotation
					JOINT RightShoulder
					{
						OFFSET -2.94710 0.68072 0.32187
CHANNELS 3 Zrotation Xrotation Yrotation
						JOINT RightElbow
						{
OFFSET 0 -5.253960 -0.000000
CHANNELS 3 Zrotation Xrotation Yrotation
							JOINT RightWrist
							{
OFFSET 0 -3.105670 0.000000
CHANNELS 3 Zrotation Xrotation Yrotation
								JOINT rhand
								{
									OFFSET 0 0 0
CHANNELS 3 Zrotation Xrotation Yrotation
									JOINT RFingers
									{
OFFSET 0 -0.498680 0.000000
CHANNELS 3 Zrotation Xrotation Yrotation
										End Site
										{
OFFSET 0 -0.402040 0.000000
										}
									}
								}
								JOINT RThumb
								{
OFFSET 0 0.000000 0.000000
CHANNELS 3 Zrotation Xrotation Yrotation
									End Site
									{
OFFSET 0 -0.408180 0.408180
									}
								}
							}
						}
					}
				}
			}
		}
	}
}
MOTION
Frames: 4
Frame Time: 0.008333333333333333
10.010306 7.787209 26.556123 180.769896 -8.029028 -110.100311 0.000000 0.000000 0.000000 -3.260004 -28.265256 -60.549025 22.572331 19.840599 97.540107 -2.238834 -25.520003 6.767760 2.143849 9.159474 26.295596 0.000000 0.000000 0.000000 -9.366351 14.249843 -107.000318 -30.175788 -17.309574 121.101100 -10.610131 -3.696766 62.428773 -2.500352 -9.838350 28.455077 0.085912 -1.956217 13.476155 7.957791 -2.496668 1.059727 9.019593 -1.294476 -6.089810 1.173433 2.486119 -29.937166 -3.867435 6.983840 36.759061 -0.229718 2.579611 19.451617 0.000000 0.000000 0.000000 55.985760 -71.892343 2.729798 14.720746 -23.755663 3.112617 89.022863 -112.682181 38.706595 0.000000 0.000000 0.000000 -7.125000 0.000000 0.000000 29.140059 -54.093494 41.639099 0.000000 0.000000 0.000000 -29.813730 -69.244622 25.944908 -14.500793 -23.446134 -3.024555 -79.894065 67.136830 22.017853 0.000000 0.000000 0.000000 7.125000 0.000000 0.000000 -81.239448 -64.033881 -108.955261
10.058314 7.776999 26.501919 180.025018 -8.817298 -110.651910 0.000000 0.000000 0.000000 -3.095726 -28.832121 -59.416223 22.420310 19.858960 97.092458 -2.239712 -25.498383 7.022797 2.200652 9.272122 26.650283 0.000000 0.000000 0.000000 -8.513060 13.413512 -107.719535 -30.529660 -17.100938 122.297223 -10.653213 -3.643482 62.574706 -2.333429 -9.528187 27.462195 0.466981 -2.233134 13.727176 8.131853 -2.828120 1.275261 9.057209 -1.483484 -5.956550 1.200662 2.459355 -29.746854 -3.795353 6.934962 36.834377 -0.213360 2.583631 19.441296 0.000000 0.000000 0.000000 55.754127 -71.888920 2.326713 14.605339 -23.593464 3.066251 89.350128 -113.424831 38.631551 0.000000 0.000000 0.000000 -7.125000 0.000000 0.000000 29.493063 -54.419797 42.099406 0.000000 0.000000 0.000000 -29.745225 -69.104654 26.057040 -14.580483 -23.558383 -3.056274 -81.394197 71.154126 22.707652 0.000000 0.000000 0.000000 7.125000 0.000000 0.000000 -89.140845 -64.394142 -117.659784
10.110642 7.760948 26.441218 179.216805 -9.685163 -111.170429 0.000000 0.000000 0.000000 -2.900086 -29.430515 -58.260269 22.263115 19.876724 96.630115 -2.237644 -25.465281 7.256768 2.267095 9.401448 27.059438 0.000000 0.000000 0.000000 -7.683385 12.706914 -108.021505 -30.771229 -16.952664 123.121963 -10.831939 -3.539105 63.162098 -2.107616 -9.086488 26.066386 0.865917 -2.524031 13.937958 8.337682 -3.173444 1.456253 9.123206 -1.678216 -5.836375 1.218310 2.410088 -29.549454 -3.713010 6.864565 36.945048 -0.195391 2.580702 19.448451 0.000000 0.000000 0.000000 55.063837 -71.886660 1.536991 14.497429 -23.441283 3.023183 89.737598 -114.207512 38.552450 0.000000 0.000000 0.000000 -7.125000 0.000000 0.000000 29.910033 -54.811581 42.637569 0.000000 0.000000 0.000000 -29.696603 -68.846457 26.128724 -14.672558 -23.687990 -3.093175 -83.028102 75.469028 23.351757 0.000000 0.000000 0.000000 7.125000 0.000000 0.000000 -97.547513 -64.232234 -126.892385
10.167637 7.738630 26.375967 178.349356 -10.615201 -111.647628 0.000000 0.000000 0.000000 -2.683014 -30.044315 -57.107424 22.108801 19.893034 96.176258 -2.234002 -25.430455 7.433163 2.337173 9.535689 27.485857 0.000000 0.000000 0.000000 -6.918446 12.135278 -107.815296 -30.904169 -16.868940 123.579173 -11.063654 -3.184722 63.946302 -1.787042 -8.405857 23.954853 1.257648 -2.838907 14.117383 8.571223 -3.547781 1.601211 9.231409 -1.885073 -5.732302 1.234151 2.353338 -29.380339 -3.631029 6.799737 37.108390 -0.174768 2.579378 19.495175 0.000000 0.000000 0.000000 54.104830 -71.824307 0.446183 14.413567 -23.322898 2.989931 90.192949 65.473358 -38.480446 0.000000 0.000000 0.000000 -7.125000 0.000000 0.000000 30.390241 -55.280522 43.247369 0.000000 0.000000 0.000000 -29.522874 -68.481636 26.278219 -14.772103 -23.827708 -3.133285 -83.448950 76.639438 23.403167 0.000000 0.000000 0.000000 7.125000 0.000000 0.000000 -99.368465 -64.067610 -128.969309
